<?xml version="1.0" standalone="no"?>
<!DOCTYPE svg PUBLIC "-//W3C//DTD SVG 20010904//EN"
 "http://www.w3.org/TR/2001/REC-SVG-20010904/DTD/svg10.dtd">
<svg version="1.0" xmlns="http://www.w3.org/2000/svg"
 width="23.000000pt" height="25.000000pt" viewBox="0 0 23.000000 25.000000"
 preserveAspectRatio="xMidYMid meet">

<g transform="translate(0.000000,25.000000) scale(0.100000,-0.100000)"
fill="#000000" stroke="none">
<path d="M0 125 l0 -125 115 0 115 0 0 125 0 125 -115 0 -115 0 0 -125z m140
76 c0 -5 10 -12 23 -14 12 -2 -7 -4 -43 -4 -36 -1 -57 1 -47 4 9 2 17 9 17 14
0 5 11 9 25 9 14 0 25 -4 25 -9z m28 -83 l-3 -53 -47 -3 -48 -3 0 55 0 56 51
0 50 0 -3 -52z"/>
<path d="M108 193 c7 -3 16 -2 19 1 4 3 -2 6 -13 5 -11 0 -14 -3 -6 -6z"/>
<path d="M80 114 l0 -45 38 3 c36 3 37 4 40 46 l3 42 -40 0 -41 0 0 -46z m17
-11 c-3 -10 -5 -2 -5 17 0 19 2 27 5 18 2 -10 2 -26 0 -35z m20 0 c-3 -10 -5
-2 -5 17 0 19 2 27 5 18 2 -10 2 -26 0 -35z m20 0 c-3 -10 -5 -2 -5 17 0 19 2
27 5 18 2 -10 2 -26 0 -35z"/>
</g>
</svg>
