<?xml version="1.0" standalone="no"?>
<!DOCTYPE svg PUBLIC "-//W3C//DTD SVG 20010904//EN"
 "http://www.w3.org/TR/2001/REC-SVG-20010904/DTD/svg10.dtd">
<svg version="1.0" xmlns="http://www.w3.org/2000/svg"
 width="24.000000pt" height="23.000000pt" viewBox="0 0 24.000000 23.000000"
 preserveAspectRatio="xMidYMid meet">

<g transform="translate(0.000000,23.000000) scale(0.100000,-0.100000)"
fill="#000000" stroke="none">
<path d="M0 115 l0 -115 120 0 120 0 0 115 0 115 -120 0 -120 0 0 -115z m172
58 c13 -12 18 -31 18 -75 l0 -58 -65 0 -65 0 0 75 0 75 47 0 c29 0 53 -6 65
-17z"/>
<path d="M70 115 l0 -65 55 0 55 0 0 45 c0 41 -2 45 -25 45 -18 0 -25 5 -25
20 0 16 -7 20 -30 20 l-30 0 0 -65z m78 -12 c-10 -2 -28 -2 -40 0 -13 2 -5 4
17 4 22 1 32 -1 23 -4z m0 -30 c-10 -2 -28 -2 -40 0 -13 2 -5 4 17 4 22 1 32
-1 23 -4z"/>
<path d="M140 160 c0 -5 9 -10 21 -10 11 0 17 5 14 10 -3 6 -13 10 -21 10 -8
0 -14 -4 -14 -10z"/>
</g>
</svg>
